<mxfile host="65bd71144e">
    <diagram id="E2S2H7sD9twZsAFmnPIf" name="Page-1">
        <mxGraphModel dx="1356" dy="706" grid="1" gridSize="10" guides="1" tooltips="1" connect="1" arrows="1" fold="1" page="1" pageScale="1" pageWidth="1169" pageHeight="827" math="0" shadow="0">
            <root>
                <mxCell id="0"/>
                <mxCell id="1" parent="0"/>
                <mxCell id="2" value="Health Center" style="shape=umlActor;verticalLabelPosition=bottom;verticalAlign=top;html=1;outlineConnect=0;sketch=0;hachureGap=4;fontFamily=Helvetica;fontSize=20;" vertex="1" parent="1">
                    <mxGeometry x="450" y="280" width="30" height="60" as="geometry"/>
                </mxCell>
                <mxCell id="5" value="units" style="ellipse;shape=cloud;whiteSpace=wrap;html=1;sketch=0;hachureGap=4;fontFamily=Helvetica;fontSize=20;" vertex="1" parent="1">
                    <mxGeometry x="230" y="100" width="120" height="80" as="geometry"/>
                </mxCell>
                <mxCell id="6" value="doctor" style="ellipse;shape=cloud;whiteSpace=wrap;html=1;sketch=0;hachureGap=4;fontFamily=Helvetica;fontSize=20;" vertex="1" parent="1">
                    <mxGeometry x="405" y="90" width="120" height="80" as="geometry"/>
                </mxCell>
                <mxCell id="7" value="patients" style="ellipse;shape=cloud;whiteSpace=wrap;html=1;sketch=0;hachureGap=4;fontFamily=Helvetica;fontSize=20;" vertex="1" parent="1">
                    <mxGeometry x="585" y="230" width="120" height="80" as="geometry"/>
                </mxCell>
                <mxCell id="8" value="case history&amp;nbsp;" style="ellipse;shape=cloud;whiteSpace=wrap;html=1;sketch=0;hachureGap=4;fontFamily=Helvetica;fontSize=20;" vertex="1" parent="1">
                    <mxGeometry x="130" y="200" width="160" height="100" as="geometry"/>
                </mxCell>
                <mxCell id="9" value="units" style="ellipse;shape=cloud;whiteSpace=wrap;html=1;sketch=0;hachureGap=4;fontFamily=Helvetica;fontSize=20;" vertex="1" parent="1">
                    <mxGeometry x="220" y="334" width="120" height="80" as="geometry"/>
                </mxCell>
                <mxCell id="10" value="treatment" style="ellipse;shape=cloud;whiteSpace=wrap;html=1;sketch=0;hachureGap=4;fontFamily=Helvetica;fontSize=20;" vertex="1" parent="1">
                    <mxGeometry x="560" y="80" width="120" height="80" as="geometry"/>
                </mxCell>
            </root>
        </mxGraphModel>
    </diagram>
    <diagram name="Page-2" id="9lMMVLMk2I6UlctClVJ4">
        <mxGraphModel dx="2086" dy="1086" grid="1" gridSize="10" guides="1" tooltips="1" connect="1" arrows="1" fold="1" page="1" pageScale="1" pageWidth="1169" pageHeight="827" math="0" shadow="0">
            <root>
                <mxCell id="4QImXv3mAUj1o4yShV_2-0"/>
                <mxCell id="4QImXv3mAUj1o4yShV_2-1" parent="4QImXv3mAUj1o4yShV_2-0"/>
                <mxCell id="M2kmrU6uxT4zapXiiIRl-1" style="edgeStyle=none;curved=1;rounded=0;sketch=0;hachureGap=4;orthogonalLoop=1;jettySize=auto;html=1;exitX=1;exitY=0.5;exitDx=0;exitDy=0;fontFamily=Helvetica;fontSize=16;endArrow=none;startSize=14;endSize=14;sourcePerimeterSpacing=8;targetPerimeterSpacing=8;endFill=0;entryX=0;entryY=0.5;entryDx=0;entryDy=0;" edge="1" parent="4QImXv3mAUj1o4yShV_2-1" source="4QImXv3mAUj1o4yShV_2-9" target="M2kmrU6uxT4zapXiiIRl-0">
                    <mxGeometry relative="1" as="geometry"/>
                </mxCell>
                <mxCell id="4QImXv3mAUj1o4yShV_2-9" value="patients" style="rounded=1;whiteSpace=wrap;html=1;sketch=0;hachureGap=4;fontFamily=Helvetica;fontSize=20;" vertex="1" parent="4QImXv3mAUj1o4yShV_2-1">
                    <mxGeometry x="130" y="190" width="120" height="60" as="geometry"/>
                </mxCell>
                <mxCell id="M2kmrU6uxT4zapXiiIRl-2" style="edgeStyle=none;curved=1;rounded=0;sketch=0;hachureGap=4;orthogonalLoop=1;jettySize=auto;html=1;exitX=1;exitY=0.5;exitDx=0;exitDy=0;entryX=0;entryY=0.5;entryDx=0;entryDy=0;fontFamily=Helvetica;fontSize=16;endArrow=none;endFill=0;startSize=14;endSize=14;sourcePerimeterSpacing=8;targetPerimeterSpacing=8;" edge="1" parent="4QImXv3mAUj1o4yShV_2-1" source="M2kmrU6uxT4zapXiiIRl-0">
                    <mxGeometry relative="1" as="geometry">
                        <mxPoint x="560" y="220" as="targetPoint"/>
                    </mxGeometry>
                </mxCell>
                <mxCell id="M2kmrU6uxT4zapXiiIRl-0" value="register" style="rhombus;whiteSpace=wrap;html=1;sketch=0;hachureGap=4;fontFamily=Helvetica;fontSize=20;" vertex="1" parent="4QImXv3mAUj1o4yShV_2-1">
                    <mxGeometry x="360" y="180" width="80" height="80" as="geometry"/>
                </mxCell>
                <mxCell id="M2kmrU6uxT4zapXiiIRl-15" style="edgeStyle=none;curved=1;rounded=0;sketch=0;hachureGap=4;orthogonalLoop=1;jettySize=auto;html=1;exitX=1;exitY=0.5;exitDx=0;exitDy=0;entryX=0;entryY=0.5;entryDx=0;entryDy=0;fontFamily=Helvetica;fontSize=17;endArrow=none;endFill=0;startSize=14;endSize=14;sourcePerimeterSpacing=8;targetPerimeterSpacing=8;" edge="1" parent="4QImXv3mAUj1o4yShV_2-1" source="M2kmrU6uxT4zapXiiIRl-3" target="M2kmrU6uxT4zapXiiIRl-14">
                    <mxGeometry relative="1" as="geometry"/>
                </mxCell>
                <mxCell id="M2kmrU6uxT4zapXiiIRl-3" value="unit" style="rounded=1;whiteSpace=wrap;html=1;sketch=0;hachureGap=4;fontFamily=Helvetica;fontSize=20;" vertex="1" parent="4QImXv3mAUj1o4yShV_2-1">
                    <mxGeometry x="550" y="190" width="120" height="60" as="geometry"/>
                </mxCell>
                <mxCell id="M2kmrU6uxT4zapXiiIRl-11" style="edgeStyle=none;curved=1;rounded=0;sketch=0;hachureGap=4;orthogonalLoop=1;jettySize=auto;html=1;exitX=0.5;exitY=1;exitDx=0;exitDy=0;fontFamily=Helvetica;fontSize=17;endArrow=none;endFill=0;startSize=14;endSize=14;sourcePerimeterSpacing=8;targetPerimeterSpacing=8;" edge="1" parent="4QImXv3mAUj1o4yShV_2-1" source="M2kmrU6uxT4zapXiiIRl-7" target="4QImXv3mAUj1o4yShV_2-9">
                    <mxGeometry relative="1" as="geometry"/>
                </mxCell>
                <mxCell id="M2kmrU6uxT4zapXiiIRl-7" value="&lt;font style=&quot;font-size: 17px&quot;&gt;social_securtity&lt;/font&gt;" style="ellipse;whiteSpace=wrap;html=1;sketch=0;hachureGap=4;fontFamily=Helvetica;fontSize=20;" vertex="1" parent="4QImXv3mAUj1o4yShV_2-1">
                    <mxGeometry x="50" y="40" width="130" height="60" as="geometry"/>
                </mxCell>
                <mxCell id="M2kmrU6uxT4zapXiiIRl-10" style="edgeStyle=none;curved=1;rounded=0;sketch=0;hachureGap=4;orthogonalLoop=1;jettySize=auto;html=1;exitX=0.5;exitY=1;exitDx=0;exitDy=0;entryX=0.75;entryY=0;entryDx=0;entryDy=0;fontFamily=Helvetica;fontSize=17;endArrow=none;endFill=0;startSize=14;endSize=14;sourcePerimeterSpacing=8;targetPerimeterSpacing=8;" edge="1" parent="4QImXv3mAUj1o4yShV_2-1" source="M2kmrU6uxT4zapXiiIRl-8" target="4QImXv3mAUj1o4yShV_2-9">
                    <mxGeometry relative="1" as="geometry"/>
                </mxCell>
                <mxCell id="M2kmrU6uxT4zapXiiIRl-8" value="date_admission" style="ellipse;whiteSpace=wrap;html=1;sketch=0;hachureGap=4;fontFamily=Helvetica;fontSize=17;" vertex="1" parent="4QImXv3mAUj1o4yShV_2-1">
                    <mxGeometry x="200" y="30" width="140" height="50" as="geometry"/>
                </mxCell>
                <mxCell id="M2kmrU6uxT4zapXiiIRl-12" style="edgeStyle=none;curved=1;rounded=0;sketch=0;hachureGap=4;orthogonalLoop=1;jettySize=auto;html=1;exitX=0.5;exitY=1;exitDx=0;exitDy=0;fontFamily=Helvetica;fontSize=17;endArrow=none;endFill=0;startSize=14;endSize=14;sourcePerimeterSpacing=8;targetPerimeterSpacing=8;" edge="1" parent="4QImXv3mAUj1o4yShV_2-1" source="M2kmrU6uxT4zapXiiIRl-9" target="4QImXv3mAUj1o4yShV_2-9">
                    <mxGeometry relative="1" as="geometry"/>
                </mxCell>
                <mxCell id="M2kmrU6uxT4zapXiiIRl-9" value="age" style="ellipse;whiteSpace=wrap;html=1;sketch=0;hachureGap=4;fontFamily=Helvetica;fontSize=17;" vertex="1" parent="4QImXv3mAUj1o4yShV_2-1">
                    <mxGeometry x="40" y="120" width="80" height="40" as="geometry"/>
                </mxCell>
                <mxCell id="ubNGG9-7hNJ6dNenVUmi-2" style="edgeStyle=orthogonalEdgeStyle;rounded=0;sketch=0;hachureGap=4;orthogonalLoop=1;jettySize=auto;html=1;exitX=0.25;exitY=1;exitDx=0;exitDy=0;entryX=0.5;entryY=0;entryDx=0;entryDy=0;fontFamily=Helvetica;fontSize=17;startArrow=none;startFill=0;endArrow=none;endFill=0;startSize=14;endSize=14;sourcePerimeterSpacing=8;targetPerimeterSpacing=8;" edge="1" parent="4QImXv3mAUj1o4yShV_2-1" source="M2kmrU6uxT4zapXiiIRl-13" target="ubNGG9-7hNJ6dNenVUmi-1">
                    <mxGeometry relative="1" as="geometry"/>
                </mxCell>
                <mxCell id="M2kmrU6uxT4zapXiiIRl-13" value="doctor" style="rounded=1;whiteSpace=wrap;html=1;sketch=0;hachureGap=4;fontFamily=Helvetica;fontSize=20;" vertex="1" parent="4QImXv3mAUj1o4yShV_2-1">
                    <mxGeometry x="900" y="430" width="120" height="60" as="geometry"/>
                </mxCell>
                <mxCell id="M2kmrU6uxT4zapXiiIRl-16" style="edgeStyle=none;curved=1;rounded=0;sketch=0;hachureGap=4;orthogonalLoop=1;jettySize=auto;html=1;exitX=1;exitY=0.5;exitDx=0;exitDy=0;fontFamily=Helvetica;fontSize=17;endArrow=none;endFill=0;startSize=14;endSize=14;sourcePerimeterSpacing=8;targetPerimeterSpacing=8;" edge="1" parent="4QImXv3mAUj1o4yShV_2-1" source="M2kmrU6uxT4zapXiiIRl-14" target="M2kmrU6uxT4zapXiiIRl-13">
                    <mxGeometry relative="1" as="geometry"/>
                </mxCell>
                <mxCell id="M2kmrU6uxT4zapXiiIRl-14" value="has" style="rhombus;whiteSpace=wrap;html=1;sketch=0;hachureGap=4;fontFamily=Helvetica;fontSize=17;" vertex="1" parent="4QImXv3mAUj1o4yShV_2-1">
                    <mxGeometry x="800" y="180" width="80" height="80" as="geometry"/>
                </mxCell>
                <mxCell id="M2kmrU6uxT4zapXiiIRl-20" style="edgeStyle=none;curved=1;rounded=0;sketch=0;hachureGap=4;orthogonalLoop=1;jettySize=auto;html=1;exitX=0.5;exitY=1;exitDx=0;exitDy=0;fontFamily=Helvetica;fontSize=17;endArrow=none;endFill=0;startSize=14;endSize=14;sourcePerimeterSpacing=8;targetPerimeterSpacing=8;" edge="1" parent="4QImXv3mAUj1o4yShV_2-1" source="M2kmrU6uxT4zapXiiIRl-17" target="M2kmrU6uxT4zapXiiIRl-13">
                    <mxGeometry relative="1" as="geometry"/>
                </mxCell>
                <mxCell id="M2kmrU6uxT4zapXiiIRl-17" value="name" style="ellipse;whiteSpace=wrap;html=1;sketch=0;hachureGap=4;fontFamily=Helvetica;fontSize=17;" vertex="1" parent="4QImXv3mAUj1o4yShV_2-1">
                    <mxGeometry x="940" y="330" width="90" height="40" as="geometry"/>
                </mxCell>
                <mxCell id="M2kmrU6uxT4zapXiiIRl-21" style="edgeStyle=none;curved=1;rounded=0;sketch=0;hachureGap=4;orthogonalLoop=1;jettySize=auto;html=1;exitX=0;exitY=1;exitDx=0;exitDy=0;fontFamily=Helvetica;fontSize=17;endArrow=none;endFill=0;startSize=14;endSize=14;sourcePerimeterSpacing=8;targetPerimeterSpacing=8;" edge="1" parent="4QImXv3mAUj1o4yShV_2-1" source="M2kmrU6uxT4zapXiiIRl-18" target="M2kmrU6uxT4zapXiiIRl-13">
                    <mxGeometry relative="1" as="geometry"/>
                </mxCell>
                <mxCell id="M2kmrU6uxT4zapXiiIRl-18" value="code" style="ellipse;whiteSpace=wrap;html=1;sketch=0;hachureGap=4;fontFamily=Helvetica;fontSize=17;" vertex="1" parent="4QImXv3mAUj1o4yShV_2-1">
                    <mxGeometry x="1040" y="389" width="100" height="41" as="geometry"/>
                </mxCell>
                <mxCell id="M2kmrU6uxT4zapXiiIRl-22" style="edgeStyle=none;curved=1;rounded=0;sketch=0;hachureGap=4;orthogonalLoop=1;jettySize=auto;html=1;exitX=0;exitY=1;exitDx=0;exitDy=0;fontFamily=Helvetica;fontSize=17;endArrow=none;endFill=0;startSize=14;endSize=14;sourcePerimeterSpacing=8;targetPerimeterSpacing=8;" edge="1" parent="4QImXv3mAUj1o4yShV_2-1" source="M2kmrU6uxT4zapXiiIRl-19" target="M2kmrU6uxT4zapXiiIRl-13">
                    <mxGeometry relative="1" as="geometry"/>
                </mxCell>
                <mxCell id="M2kmrU6uxT4zapXiiIRl-19" value="speciality" style="ellipse;whiteSpace=wrap;html=1;sketch=0;hachureGap=4;fontFamily=Helvetica;fontSize=17;" vertex="1" parent="4QImXv3mAUj1o4yShV_2-1">
                    <mxGeometry x="1045" y="310" width="90" height="40" as="geometry"/>
                </mxCell>
                <mxCell id="M2kmrU6uxT4zapXiiIRl-27" style="edgeStyle=none;curved=1;rounded=0;sketch=0;hachureGap=4;orthogonalLoop=1;jettySize=auto;html=1;exitX=1;exitY=0;exitDx=0;exitDy=0;fontFamily=Helvetica;fontSize=17;endArrow=none;endFill=0;startSize=14;endSize=14;sourcePerimeterSpacing=8;targetPerimeterSpacing=8;entryX=0.75;entryY=1;entryDx=0;entryDy=0;" edge="1" parent="4QImXv3mAUj1o4yShV_2-1" source="M2kmrU6uxT4zapXiiIRl-23" target="M2kmrU6uxT4zapXiiIRl-3">
                    <mxGeometry relative="1" as="geometry"/>
                </mxCell>
                <mxCell id="M2kmrU6uxT4zapXiiIRl-23" value="unit_id" style="ellipse;whiteSpace=wrap;html=1;sketch=0;hachureGap=4;fontFamily=Helvetica;fontSize=17;" vertex="1" parent="4QImXv3mAUj1o4yShV_2-1">
                    <mxGeometry x="610" y="315" width="70" height="30" as="geometry"/>
                </mxCell>
                <mxCell id="M2kmrU6uxT4zapXiiIRl-35" style="edgeStyle=none;curved=1;rounded=0;sketch=0;hachureGap=4;orthogonalLoop=1;jettySize=auto;html=1;exitX=1;exitY=0.5;exitDx=0;exitDy=0;fontFamily=Helvetica;fontSize=17;endArrow=none;endFill=0;startSize=14;endSize=14;sourcePerimeterSpacing=8;targetPerimeterSpacing=8;" edge="1" parent="4QImXv3mAUj1o4yShV_2-1" source="M2kmrU6uxT4zapXiiIRl-24" target="4QImXv3mAUj1o4yShV_2-9">
                    <mxGeometry relative="1" as="geometry"/>
                </mxCell>
                <mxCell id="M2kmrU6uxT4zapXiiIRl-24" value="patient_id" style="ellipse;whiteSpace=wrap;html=1;sketch=0;hachureGap=4;fontFamily=Helvetica;fontSize=17;" vertex="1" parent="4QImXv3mAUj1o4yShV_2-1">
                    <mxGeometry x="20" y="200" width="80" height="40" as="geometry"/>
                </mxCell>
                <mxCell id="M2kmrU6uxT4zapXiiIRl-26" style="edgeStyle=none;curved=1;rounded=0;sketch=0;hachureGap=4;orthogonalLoop=1;jettySize=auto;html=1;exitX=0;exitY=0.5;exitDx=0;exitDy=0;entryX=1;entryY=0.75;entryDx=0;entryDy=0;fontFamily=Helvetica;fontSize=17;endArrow=none;endFill=0;startSize=14;endSize=14;sourcePerimeterSpacing=8;targetPerimeterSpacing=8;" edge="1" parent="4QImXv3mAUj1o4yShV_2-1" source="M2kmrU6uxT4zapXiiIRl-25" target="M2kmrU6uxT4zapXiiIRl-13">
                    <mxGeometry relative="1" as="geometry"/>
                </mxCell>
                <mxCell id="M2kmrU6uxT4zapXiiIRl-25" value="doctor_id" style="ellipse;whiteSpace=wrap;html=1;sketch=0;hachureGap=4;fontFamily=Helvetica;fontSize=17;" vertex="1" parent="4QImXv3mAUj1o4yShV_2-1">
                    <mxGeometry x="1050" y="459" width="100" height="41" as="geometry"/>
                </mxCell>
                <mxCell id="M2kmrU6uxT4zapXiiIRl-31" style="edgeStyle=none;curved=1;rounded=0;sketch=0;hachureGap=4;orthogonalLoop=1;jettySize=auto;html=1;entryX=0.25;entryY=1;entryDx=0;entryDy=0;fontFamily=Helvetica;fontSize=17;endArrow=none;endFill=0;startSize=14;endSize=14;sourcePerimeterSpacing=8;targetPerimeterSpacing=8;exitX=0.754;exitY=-0.073;exitDx=0;exitDy=0;exitPerimeter=0;" edge="1" parent="4QImXv3mAUj1o4yShV_2-1" source="M2kmrU6uxT4zapXiiIRl-28" target="M2kmrU6uxT4zapXiiIRl-3">
                    <mxGeometry relative="1" as="geometry">
                        <mxPoint x="700" y="300" as="sourcePoint"/>
                    </mxGeometry>
                </mxCell>
                <mxCell id="M2kmrU6uxT4zapXiiIRl-28" value="name" style="ellipse;whiteSpace=wrap;html=1;sketch=0;hachureGap=4;fontFamily=Helvetica;fontSize=17;" vertex="1" parent="4QImXv3mAUj1o4yShV_2-1">
                    <mxGeometry x="520" y="330" width="90" height="40" as="geometry"/>
                </mxCell>
                <mxCell id="M2kmrU6uxT4zapXiiIRl-30" style="edgeStyle=none;curved=1;rounded=0;sketch=0;hachureGap=4;orthogonalLoop=1;jettySize=auto;html=1;exitX=1;exitY=0.5;exitDx=0;exitDy=0;entryX=0;entryY=0.75;entryDx=0;entryDy=0;fontFamily=Helvetica;fontSize=17;endArrow=none;endFill=0;startSize=14;endSize=14;sourcePerimeterSpacing=8;targetPerimeterSpacing=8;" edge="1" parent="4QImXv3mAUj1o4yShV_2-1" source="M2kmrU6uxT4zapXiiIRl-29" target="M2kmrU6uxT4zapXiiIRl-3">
                    <mxGeometry relative="1" as="geometry"/>
                </mxCell>
                <mxCell id="M2kmrU6uxT4zapXiiIRl-29" value="floor" style="ellipse;whiteSpace=wrap;html=1;sketch=0;hachureGap=4;fontFamily=Helvetica;fontSize=17;" vertex="1" parent="4QImXv3mAUj1o4yShV_2-1">
                    <mxGeometry x="440" y="300" width="90" height="40" as="geometry"/>
                </mxCell>
                <mxCell id="M2kmrU6uxT4zapXiiIRl-34" style="edgeStyle=none;curved=1;rounded=0;sketch=0;hachureGap=4;orthogonalLoop=1;jettySize=auto;html=1;exitX=0;exitY=0;exitDx=0;exitDy=0;fontFamily=Helvetica;fontSize=17;endArrow=none;endFill=0;startSize=14;endSize=14;sourcePerimeterSpacing=8;targetPerimeterSpacing=8;" edge="1" parent="4QImXv3mAUj1o4yShV_2-1" source="M2kmrU6uxT4zapXiiIRl-33" target="M2kmrU6uxT4zapXiiIRl-13">
                    <mxGeometry relative="1" as="geometry"/>
                </mxCell>
                <mxCell id="M2kmrU6uxT4zapXiiIRl-33" value="fk_unit_id" style="ellipse;whiteSpace=wrap;html=1;sketch=0;hachureGap=4;fontFamily=Helvetica;fontSize=17;" vertex="1" parent="4QImXv3mAUj1o4yShV_2-1">
                    <mxGeometry x="990" y="510" width="100" height="41" as="geometry"/>
                </mxCell>
                <mxCell id="ubNGG9-7hNJ6dNenVUmi-0" value="intervention" style="rounded=1;whiteSpace=wrap;html=1;sketch=0;hachureGap=4;fontFamily=Helvetica;fontSize=17;" vertex="1" parent="4QImXv3mAUj1o4yShV_2-1">
                    <mxGeometry x="870" y="670" width="120" height="60" as="geometry"/>
                </mxCell>
                <mxCell id="ubNGG9-7hNJ6dNenVUmi-3" style="edgeStyle=orthogonalEdgeStyle;rounded=0;sketch=0;hachureGap=4;orthogonalLoop=1;jettySize=auto;html=1;exitX=0.5;exitY=1;exitDx=0;exitDy=0;fontFamily=Helvetica;fontSize=17;startArrow=none;startFill=0;endArrow=none;endFill=0;startSize=14;endSize=14;sourcePerimeterSpacing=8;targetPerimeterSpacing=8;" edge="1" parent="4QImXv3mAUj1o4yShV_2-1" source="ubNGG9-7hNJ6dNenVUmi-1" target="ubNGG9-7hNJ6dNenVUmi-0">
                    <mxGeometry relative="1" as="geometry"/>
                </mxCell>
                <mxCell id="ubNGG9-7hNJ6dNenVUmi-1" value="made" style="rhombus;whiteSpace=wrap;html=1;sketch=0;hachureGap=4;fontFamily=Helvetica;fontSize=17;" vertex="1" parent="4QImXv3mAUj1o4yShV_2-1">
                    <mxGeometry x="890" y="540" width="80" height="80" as="geometry"/>
                </mxCell>
                <mxCell id="ubNGG9-7hNJ6dNenVUmi-8" style="rounded=0;sketch=0;hachureGap=4;orthogonalLoop=1;jettySize=auto;html=1;exitX=1;exitY=0;exitDx=0;exitDy=0;entryX=0;entryY=0.5;entryDx=0;entryDy=0;fontFamily=Helvetica;fontSize=17;startArrow=none;startFill=0;endArrow=none;endFill=0;startSize=14;endSize=14;sourcePerimeterSpacing=8;targetPerimeterSpacing=8;" edge="1" parent="4QImXv3mAUj1o4yShV_2-1" source="ubNGG9-7hNJ6dNenVUmi-4" target="ubNGG9-7hNJ6dNenVUmi-0">
                    <mxGeometry relative="1" as="geometry"/>
                </mxCell>
                <mxCell id="ubNGG9-7hNJ6dNenVUmi-4" value="date" style="ellipse;whiteSpace=wrap;html=1;sketch=0;hachureGap=4;fontFamily=Helvetica;fontSize=17;" vertex="1" parent="4QImXv3mAUj1o4yShV_2-1">
                    <mxGeometry x="720" y="730" width="110" height="50" as="geometry"/>
                </mxCell>
                <mxCell id="ubNGG9-7hNJ6dNenVUmi-9" style="rounded=0;sketch=0;hachureGap=4;orthogonalLoop=1;jettySize=auto;html=1;exitX=0.5;exitY=0;exitDx=0;exitDy=0;fontFamily=Helvetica;fontSize=17;startArrow=none;startFill=0;endArrow=none;endFill=0;startSize=14;endSize=14;sourcePerimeterSpacing=8;targetPerimeterSpacing=8;" edge="1" parent="4QImXv3mAUj1o4yShV_2-1" source="ubNGG9-7hNJ6dNenVUmi-6" target="ubNGG9-7hNJ6dNenVUmi-0">
                    <mxGeometry relative="1" as="geometry"/>
                </mxCell>
                <mxCell id="ubNGG9-7hNJ6dNenVUmi-6" value="symptom" style="ellipse;whiteSpace=wrap;html=1;sketch=0;hachureGap=4;fontFamily=Helvetica;fontSize=17;" vertex="1" parent="4QImXv3mAUj1o4yShV_2-1">
                    <mxGeometry x="860" y="750" width="110" height="50" as="geometry"/>
                </mxCell>
                <mxCell id="ubNGG9-7hNJ6dNenVUmi-10" style="rounded=0;sketch=0;hachureGap=4;orthogonalLoop=1;jettySize=auto;html=1;exitX=0;exitY=0;exitDx=0;exitDy=0;entryX=0.75;entryY=1;entryDx=0;entryDy=0;fontFamily=Helvetica;fontSize=17;startArrow=none;startFill=0;endArrow=none;endFill=0;startSize=14;endSize=14;sourcePerimeterSpacing=8;targetPerimeterSpacing=8;" edge="1" parent="4QImXv3mAUj1o4yShV_2-1" source="ubNGG9-7hNJ6dNenVUmi-7" target="ubNGG9-7hNJ6dNenVUmi-0">
                    <mxGeometry relative="1" as="geometry"/>
                </mxCell>
                <mxCell id="ubNGG9-7hNJ6dNenVUmi-7" value="treatment" style="ellipse;whiteSpace=wrap;html=1;sketch=0;hachureGap=4;fontFamily=Helvetica;fontSize=17;" vertex="1" parent="4QImXv3mAUj1o4yShV_2-1">
                    <mxGeometry x="1020" y="750" width="110" height="50" as="geometry"/>
                </mxCell>
                <mxCell id="b9xHUnRlggHDEcJc8JOk-1" style="edgeStyle=none;rounded=0;sketch=0;hachureGap=4;orthogonalLoop=1;jettySize=auto;html=1;exitX=0;exitY=0.5;exitDx=0;exitDy=0;fontFamily=Helvetica;fontSize=17;startArrow=none;startFill=0;endArrow=none;endFill=0;startSize=14;endSize=14;sourcePerimeterSpacing=8;targetPerimeterSpacing=8;" edge="1" parent="4QImXv3mAUj1o4yShV_2-1" source="b9xHUnRlggHDEcJc8JOk-0" target="ubNGG9-7hNJ6dNenVUmi-0">
                    <mxGeometry relative="1" as="geometry"/>
                </mxCell>
                <mxCell id="b9xHUnRlggHDEcJc8JOk-0" value="fk_patient_id" style="ellipse;whiteSpace=wrap;html=1;sketch=0;hachureGap=4;fontFamily=Helvetica;fontSize=17;" vertex="1" parent="4QImXv3mAUj1o4yShV_2-1">
                    <mxGeometry x="1020" y="675" width="110" height="50" as="geometry"/>
                </mxCell>
            </root>
        </mxGraphModel>
    </diagram>
    <diagram name="Page-3" id="jvhXclIbtSxhhpY4b2xo">
        <mxGraphModel dx="1937" dy="1009" grid="1" gridSize="10" guides="1" tooltips="1" connect="1" arrows="1" fold="1" page="1" pageScale="1" pageWidth="1169" pageHeight="827" math="0" shadow="0">
            <root>
                <mxCell id="rQ0pkBH8L-ntYdxaF4ff-0"/>
                <mxCell id="rQ0pkBH8L-ntYdxaF4ff-1" parent="rQ0pkBH8L-ntYdxaF4ff-0"/>
                <mxCell id="rQ0pkBH8L-ntYdxaF4ff-39" value="patients" style="swimlane;fontStyle=0;childLayout=stackLayout;horizontal=1;startSize=26;fillColor=none;horizontalStack=0;resizeParent=1;resizeParentMax=0;resizeLast=0;collapsible=1;marginBottom=0;sketch=0;hachureGap=4;fontFamily=Helvetica;fontSize=17;" vertex="1" parent="rQ0pkBH8L-ntYdxaF4ff-1">
                    <mxGeometry x="70" y="80" width="190" height="156" as="geometry"/>
                </mxCell>
                <mxCell id="rQ0pkBH8L-ntYdxaF4ff-40" value="patient_id: int" style="text;strokeColor=none;fillColor=none;align=left;verticalAlign=top;spacingLeft=4;spacingRight=4;overflow=hidden;rotatable=0;points=[[0,0.5],[1,0.5]];portConstraint=eastwest;sketch=0;hachureGap=4;fontFamily=Helvetica;fontSize=17;" vertex="1" parent="rQ0pkBH8L-ntYdxaF4ff-39">
                    <mxGeometry y="26" width="190" height="26" as="geometry"/>
                </mxCell>
                <mxCell id="gU-eLhUrEatLY_s3rgqb-0" value="age: int" style="text;strokeColor=none;fillColor=none;align=left;verticalAlign=top;spacingLeft=4;spacingRight=4;overflow=hidden;rotatable=0;points=[[0,0.5],[1,0.5]];portConstraint=eastwest;sketch=0;hachureGap=4;fontFamily=Helvetica;fontSize=17;" vertex="1" parent="rQ0pkBH8L-ntYdxaF4ff-39">
                    <mxGeometry y="52" width="190" height="26" as="geometry"/>
                </mxCell>
                <mxCell id="rQ0pkBH8L-ntYdxaF4ff-41" value="date_admission:" style="text;strokeColor=none;fillColor=none;align=left;verticalAlign=top;spacingLeft=4;spacingRight=4;overflow=hidden;rotatable=0;points=[[0,0.5],[1,0.5]];portConstraint=eastwest;sketch=0;hachureGap=4;fontFamily=Helvetica;fontSize=17;" vertex="1" parent="rQ0pkBH8L-ntYdxaF4ff-39">
                    <mxGeometry y="78" width="190" height="26" as="geometry"/>
                </mxCell>
                <mxCell id="HM8PR0rv1OOXuKtEzSyK-7" value="fk_unit_id: int" style="text;strokeColor=none;fillColor=none;align=left;verticalAlign=top;spacingLeft=4;spacingRight=4;overflow=hidden;rotatable=0;points=[[0,0.5],[1,0.5]];portConstraint=eastwest;sketch=0;hachureGap=4;fontFamily=Helvetica;fontSize=17;" vertex="1" parent="rQ0pkBH8L-ntYdxaF4ff-39">
                    <mxGeometry y="104" width="190" height="26" as="geometry"/>
                </mxCell>
                <mxCell id="rQ0pkBH8L-ntYdxaF4ff-42" value="social_security: int" style="text;strokeColor=none;fillColor=none;align=left;verticalAlign=top;spacingLeft=4;spacingRight=4;overflow=hidden;rotatable=0;points=[[0,0.5],[1,0.5]];portConstraint=eastwest;sketch=0;hachureGap=4;fontFamily=Helvetica;fontSize=17;" vertex="1" parent="rQ0pkBH8L-ntYdxaF4ff-39">
                    <mxGeometry y="130" width="190" height="26" as="geometry"/>
                </mxCell>
                <mxCell id="sy4wdPNBVxHfjRcVud-4-0" value="unit" style="swimlane;fontStyle=0;childLayout=stackLayout;horizontal=1;startSize=26;fillColor=none;horizontalStack=0;resizeParent=1;resizeParentMax=0;resizeLast=0;collapsible=1;marginBottom=0;sketch=0;hachureGap=4;fontFamily=Helvetica;fontSize=17;" vertex="1" parent="rQ0pkBH8L-ntYdxaF4ff-1">
                    <mxGeometry x="470" y="80" width="190" height="104" as="geometry"/>
                </mxCell>
                <mxCell id="sy4wdPNBVxHfjRcVud-4-1" value="unit_id: int" style="text;strokeColor=none;fillColor=none;align=left;verticalAlign=top;spacingLeft=4;spacingRight=4;overflow=hidden;rotatable=0;points=[[0,0.5],[1,0.5]];portConstraint=eastwest;sketch=0;hachureGap=4;fontFamily=Helvetica;fontSize=17;" vertex="1" parent="sy4wdPNBVxHfjRcVud-4-0">
                    <mxGeometry y="26" width="190" height="26" as="geometry"/>
                </mxCell>
                <mxCell id="sy4wdPNBVxHfjRcVud-4-2" value="floor: int" style="text;strokeColor=none;fillColor=none;align=left;verticalAlign=top;spacingLeft=4;spacingRight=4;overflow=hidden;rotatable=0;points=[[0,0.5],[1,0.5]];portConstraint=eastwest;sketch=0;hachureGap=4;fontFamily=Helvetica;fontSize=17;" vertex="1" parent="sy4wdPNBVxHfjRcVud-4-0">
                    <mxGeometry y="52" width="190" height="26" as="geometry"/>
                </mxCell>
                <mxCell id="sy4wdPNBVxHfjRcVud-4-3" value="name: varchar" style="text;strokeColor=none;fillColor=none;align=left;verticalAlign=top;spacingLeft=4;spacingRight=4;overflow=hidden;rotatable=0;points=[[0,0.5],[1,0.5]];portConstraint=eastwest;sketch=0;hachureGap=4;fontFamily=Helvetica;fontSize=17;" vertex="1" parent="sy4wdPNBVxHfjRcVud-4-0">
                    <mxGeometry y="78" width="190" height="26" as="geometry"/>
                </mxCell>
                <mxCell id="ncE6r25hAAm2W3OfyBGY-1" value="doctor" style="swimlane;fontStyle=0;childLayout=stackLayout;horizontal=1;startSize=26;fillColor=none;horizontalStack=0;resizeParent=1;resizeParentMax=0;resizeLast=0;collapsible=1;marginBottom=0;sketch=0;hachureGap=4;fontFamily=Helvetica;fontSize=17;" vertex="1" parent="rQ0pkBH8L-ntYdxaF4ff-1">
                    <mxGeometry x="810" y="80" width="250" height="166" as="geometry"/>
                </mxCell>
                <mxCell id="ncE6r25hAAm2W3OfyBGY-2" value="doctor_id: int" style="text;strokeColor=none;fillColor=none;align=left;verticalAlign=top;spacingLeft=4;spacingRight=4;overflow=hidden;rotatable=0;points=[[0,0.5],[1,0.5]];portConstraint=eastwest;sketch=0;hachureGap=4;fontFamily=Helvetica;fontSize=17;" vertex="1" parent="ncE6r25hAAm2W3OfyBGY-1">
                    <mxGeometry y="26" width="250" height="26" as="geometry"/>
                </mxCell>
                <mxCell id="ncE6r25hAAm2W3OfyBGY-3" value="name: varchar" style="text;strokeColor=none;fillColor=none;align=left;verticalAlign=top;spacingLeft=4;spacingRight=4;overflow=hidden;rotatable=0;points=[[0,0.5],[1,0.5]];portConstraint=eastwest;sketch=0;hachureGap=4;fontFamily=Helvetica;fontSize=17;" vertex="1" parent="ncE6r25hAAm2W3OfyBGY-1">
                    <mxGeometry y="52" width="250" height="26" as="geometry"/>
                </mxCell>
                <mxCell id="ncE6r25hAAm2W3OfyBGY-4" value="speciality: varchar" style="text;strokeColor=none;fillColor=none;align=left;verticalAlign=top;spacingLeft=4;spacingRight=4;overflow=hidden;rotatable=0;points=[[0,0.5],[1,0.5]];portConstraint=eastwest;sketch=0;hachureGap=4;fontFamily=Helvetica;fontSize=17;" vertex="1" parent="ncE6r25hAAm2W3OfyBGY-1">
                    <mxGeometry y="78" width="250" height="26" as="geometry"/>
                </mxCell>
                <mxCell id="4KOxYIY8w5qCke2dHz3a-0" value="fk_unit_id: int" style="text;strokeColor=none;fillColor=none;align=left;verticalAlign=top;spacingLeft=4;spacingRight=4;overflow=hidden;rotatable=0;points=[[0,0.5],[1,0.5]];portConstraint=eastwest;sketch=0;hachureGap=4;fontFamily=Helvetica;fontSize=17;" vertex="1" parent="ncE6r25hAAm2W3OfyBGY-1">
                    <mxGeometry y="104" width="250" height="36" as="geometry"/>
                </mxCell>
                <mxCell id="ncE6r25hAAm2W3OfyBGY-5" value="code: int" style="text;strokeColor=none;fillColor=none;align=left;verticalAlign=top;spacingLeft=4;spacingRight=4;overflow=hidden;rotatable=0;points=[[0,0.5],[1,0.5]];portConstraint=eastwest;sketch=0;hachureGap=4;fontFamily=Helvetica;fontSize=17;" vertex="1" parent="ncE6r25hAAm2W3OfyBGY-1">
                    <mxGeometry y="140" width="250" height="26" as="geometry"/>
                </mxCell>
                <mxCell id="4KOxYIY8w5qCke2dHz3a-1" style="edgeStyle=orthogonalEdgeStyle;rounded=0;sketch=0;hachureGap=4;orthogonalLoop=1;jettySize=auto;html=1;exitX=1;exitY=0.5;exitDx=0;exitDy=0;entryX=0;entryY=0.5;entryDx=0;entryDy=0;fontFamily=Helvetica;fontSize=17;endArrow=ERmany;endFill=0;startSize=14;endSize=14;sourcePerimeterSpacing=8;targetPerimeterSpacing=8;startArrow=ERone;startFill=0;" edge="1" parent="rQ0pkBH8L-ntYdxaF4ff-1" source="sy4wdPNBVxHfjRcVud-4-1" target="4KOxYIY8w5qCke2dHz3a-0">
                    <mxGeometry relative="1" as="geometry"/>
                </mxCell>
                <mxCell id="HM8PR0rv1OOXuKtEzSyK-0" value="intervention" style="swimlane;fontStyle=0;childLayout=stackLayout;horizontal=1;startSize=26;fillColor=none;horizontalStack=0;resizeParent=1;resizeParentMax=0;resizeLast=0;collapsible=1;marginBottom=0;sketch=0;hachureGap=4;fontFamily=Helvetica;fontSize=17;" vertex="1" parent="rQ0pkBH8L-ntYdxaF4ff-1">
                    <mxGeometry x="320" y="350" width="250" height="166" as="geometry"/>
                </mxCell>
                <mxCell id="HM8PR0rv1OOXuKtEzSyK-1" value="intervention_id: int" style="text;strokeColor=none;fillColor=none;align=left;verticalAlign=top;spacingLeft=4;spacingRight=4;overflow=hidden;rotatable=0;points=[[0,0.5],[1,0.5]];portConstraint=eastwest;sketch=0;hachureGap=4;fontFamily=Helvetica;fontSize=17;" vertex="1" parent="HM8PR0rv1OOXuKtEzSyK-0">
                    <mxGeometry y="26" width="250" height="26" as="geometry"/>
                </mxCell>
                <mxCell id="HM8PR0rv1OOXuKtEzSyK-2" value="date: int" style="text;strokeColor=none;fillColor=none;align=left;verticalAlign=top;spacingLeft=4;spacingRight=4;overflow=hidden;rotatable=0;points=[[0,0.5],[1,0.5]];portConstraint=eastwest;sketch=0;hachureGap=4;fontFamily=Helvetica;fontSize=17;" vertex="1" parent="HM8PR0rv1OOXuKtEzSyK-0">
                    <mxGeometry y="52" width="250" height="26" as="geometry"/>
                </mxCell>
                <mxCell id="HM8PR0rv1OOXuKtEzSyK-3" value="treatment: varchar" style="text;strokeColor=none;fillColor=none;align=left;verticalAlign=top;spacingLeft=4;spacingRight=4;overflow=hidden;rotatable=0;points=[[0,0.5],[1,0.5]];portConstraint=eastwest;sketch=0;hachureGap=4;fontFamily=Helvetica;fontSize=17;" vertex="1" parent="HM8PR0rv1OOXuKtEzSyK-0">
                    <mxGeometry y="78" width="250" height="26" as="geometry"/>
                </mxCell>
                <mxCell id="HM8PR0rv1OOXuKtEzSyK-9" value="fk_doctor_id: int" style="text;strokeColor=none;fillColor=none;align=left;verticalAlign=top;spacingLeft=4;spacingRight=4;overflow=hidden;rotatable=0;points=[[0,0.5],[1,0.5]];portConstraint=eastwest;sketch=0;hachureGap=4;fontFamily=Helvetica;fontSize=17;" vertex="1" parent="HM8PR0rv1OOXuKtEzSyK-0">
                    <mxGeometry y="104" width="250" height="26" as="geometry"/>
                </mxCell>
                <mxCell id="HM8PR0rv1OOXuKtEzSyK-4" value="fk_patients_id: int" style="text;strokeColor=none;fillColor=none;align=left;verticalAlign=top;spacingLeft=4;spacingRight=4;overflow=hidden;rotatable=0;points=[[0,0.5],[1,0.5]];portConstraint=eastwest;sketch=0;hachureGap=4;fontFamily=Helvetica;fontSize=17;" vertex="1" parent="HM8PR0rv1OOXuKtEzSyK-0">
                    <mxGeometry y="130" width="250" height="36" as="geometry"/>
                </mxCell>
                <mxCell id="HM8PR0rv1OOXuKtEzSyK-6" style="edgeStyle=entityRelationEdgeStyle;rounded=0;sketch=0;hachureGap=4;orthogonalLoop=1;jettySize=auto;html=1;exitX=0;exitY=0.5;exitDx=0;exitDy=0;entryX=1;entryY=0.5;entryDx=0;entryDy=0;fontFamily=Helvetica;fontSize=17;startArrow=none;startFill=0;endArrow=none;endFill=0;startSize=14;endSize=14;sourcePerimeterSpacing=8;targetPerimeterSpacing=8;" edge="1" parent="rQ0pkBH8L-ntYdxaF4ff-1" source="HM8PR0rv1OOXuKtEzSyK-4" target="rQ0pkBH8L-ntYdxaF4ff-40">
                    <mxGeometry relative="1" as="geometry"/>
                </mxCell>
                <mxCell id="HM8PR0rv1OOXuKtEzSyK-8" style="edgeStyle=entityRelationEdgeStyle;rounded=0;sketch=0;hachureGap=4;orthogonalLoop=1;jettySize=auto;html=1;exitX=1;exitY=0.5;exitDx=0;exitDy=0;entryX=0;entryY=0.5;entryDx=0;entryDy=0;fontFamily=Helvetica;fontSize=17;startArrow=ERmany;startFill=0;endArrow=ERmany;endFill=0;startSize=14;endSize=14;sourcePerimeterSpacing=8;targetPerimeterSpacing=8;" edge="1" parent="rQ0pkBH8L-ntYdxaF4ff-1" source="HM8PR0rv1OOXuKtEzSyK-7" target="sy4wdPNBVxHfjRcVud-4-1">
                    <mxGeometry relative="1" as="geometry"/>
                </mxCell>
                <mxCell id="HM8PR0rv1OOXuKtEzSyK-10" style="edgeStyle=entityRelationEdgeStyle;rounded=0;sketch=0;hachureGap=4;orthogonalLoop=1;jettySize=auto;html=1;exitX=1;exitY=0.5;exitDx=0;exitDy=0;entryX=0;entryY=0.5;entryDx=0;entryDy=0;fontFamily=Helvetica;fontSize=17;startArrow=ERmany;startFill=0;endArrow=ERmany;endFill=0;startSize=14;endSize=14;sourcePerimeterSpacing=8;targetPerimeterSpacing=8;" edge="1" parent="rQ0pkBH8L-ntYdxaF4ff-1" source="HM8PR0rv1OOXuKtEzSyK-9" target="ncE6r25hAAm2W3OfyBGY-2">
                    <mxGeometry relative="1" as="geometry"/>
                </mxCell>
            </root>
        </mxGraphModel>
    </diagram>
    <diagram name="Page-4" id="pq0TM4XLUWMoF9lpE93Q">
        <mxGraphModel dx="1808" dy="941" grid="1" gridSize="10" guides="1" tooltips="1" connect="1" arrows="1" fold="1" page="1" pageScale="1" pageWidth="1169" pageHeight="827" math="0" shadow="0">
            <root>
                <mxCell id="ul43zJ5OsSFiVPlQpgqc-0"/>
                <mxCell id="ul43zJ5OsSFiVPlQpgqc-1" parent="ul43zJ5OsSFiVPlQpgqc-0"/>
                <mxCell id="ul43zJ5OsSFiVPlQpgqc-2" value="patients" style="swimlane;fontStyle=0;childLayout=stackLayout;horizontal=1;startSize=26;fillColor=none;horizontalStack=0;resizeParent=1;resizeParentMax=0;resizeLast=0;collapsible=1;marginBottom=0;sketch=0;hachureGap=4;fontFamily=Helvetica;fontSize=17;" vertex="1" parent="ul43zJ5OsSFiVPlQpgqc-1">
                    <mxGeometry x="70" y="80" width="190" height="156" as="geometry"/>
                </mxCell>
                <mxCell id="ul43zJ5OsSFiVPlQpgqc-3" value="patient_id: int" style="text;strokeColor=none;fillColor=none;align=left;verticalAlign=top;spacingLeft=4;spacingRight=4;overflow=hidden;rotatable=0;points=[[0,0.5],[1,0.5]];portConstraint=eastwest;sketch=0;hachureGap=4;fontFamily=Helvetica;fontSize=17;" vertex="1" parent="ul43zJ5OsSFiVPlQpgqc-2">
                    <mxGeometry y="26" width="190" height="26" as="geometry"/>
                </mxCell>
                <mxCell id="ul43zJ5OsSFiVPlQpgqc-4" value="age: int" style="text;strokeColor=none;fillColor=none;align=left;verticalAlign=top;spacingLeft=4;spacingRight=4;overflow=hidden;rotatable=0;points=[[0,0.5],[1,0.5]];portConstraint=eastwest;sketch=0;hachureGap=4;fontFamily=Helvetica;fontSize=17;" vertex="1" parent="ul43zJ5OsSFiVPlQpgqc-2">
                    <mxGeometry y="52" width="190" height="26" as="geometry"/>
                </mxCell>
                <mxCell id="ul43zJ5OsSFiVPlQpgqc-5" value="date_admission:" style="text;strokeColor=none;fillColor=none;align=left;verticalAlign=top;spacingLeft=4;spacingRight=4;overflow=hidden;rotatable=0;points=[[0,0.5],[1,0.5]];portConstraint=eastwest;sketch=0;hachureGap=4;fontFamily=Helvetica;fontSize=17;" vertex="1" parent="ul43zJ5OsSFiVPlQpgqc-2">
                    <mxGeometry y="78" width="190" height="26" as="geometry"/>
                </mxCell>
                <mxCell id="ul43zJ5OsSFiVPlQpgqc-6" value="fk_unit_id: int" style="text;strokeColor=none;fillColor=none;align=left;verticalAlign=top;spacingLeft=4;spacingRight=4;overflow=hidden;rotatable=0;points=[[0,0.5],[1,0.5]];portConstraint=eastwest;sketch=0;hachureGap=4;fontFamily=Helvetica;fontSize=17;" vertex="1" parent="ul43zJ5OsSFiVPlQpgqc-2">
                    <mxGeometry y="104" width="190" height="26" as="geometry"/>
                </mxCell>
                <mxCell id="ul43zJ5OsSFiVPlQpgqc-7" value="social_security: int" style="text;strokeColor=none;fillColor=none;align=left;verticalAlign=top;spacingLeft=4;spacingRight=4;overflow=hidden;rotatable=0;points=[[0,0.5],[1,0.5]];portConstraint=eastwest;sketch=0;hachureGap=4;fontFamily=Helvetica;fontSize=17;" vertex="1" parent="ul43zJ5OsSFiVPlQpgqc-2">
                    <mxGeometry y="130" width="190" height="26" as="geometry"/>
                </mxCell>
                <mxCell id="ul43zJ5OsSFiVPlQpgqc-8" value="unit" style="swimlane;fontStyle=0;childLayout=stackLayout;horizontal=1;startSize=26;fillColor=none;horizontalStack=0;resizeParent=1;resizeParentMax=0;resizeLast=0;collapsible=1;marginBottom=0;sketch=0;hachureGap=4;fontFamily=Helvetica;fontSize=17;" vertex="1" parent="ul43zJ5OsSFiVPlQpgqc-1">
                    <mxGeometry x="470" y="80" width="190" height="104" as="geometry"/>
                </mxCell>
                <mxCell id="ul43zJ5OsSFiVPlQpgqc-9" value="unit_id: int" style="text;strokeColor=none;fillColor=none;align=left;verticalAlign=top;spacingLeft=4;spacingRight=4;overflow=hidden;rotatable=0;points=[[0,0.5],[1,0.5]];portConstraint=eastwest;sketch=0;hachureGap=4;fontFamily=Helvetica;fontSize=17;" vertex="1" parent="ul43zJ5OsSFiVPlQpgqc-8">
                    <mxGeometry y="26" width="190" height="26" as="geometry"/>
                </mxCell>
                <mxCell id="ul43zJ5OsSFiVPlQpgqc-10" value="floor: int" style="text;strokeColor=none;fillColor=none;align=left;verticalAlign=top;spacingLeft=4;spacingRight=4;overflow=hidden;rotatable=0;points=[[0,0.5],[1,0.5]];portConstraint=eastwest;sketch=0;hachureGap=4;fontFamily=Helvetica;fontSize=17;" vertex="1" parent="ul43zJ5OsSFiVPlQpgqc-8">
                    <mxGeometry y="52" width="190" height="26" as="geometry"/>
                </mxCell>
                <mxCell id="ul43zJ5OsSFiVPlQpgqc-11" value="name: varchar" style="text;strokeColor=none;fillColor=none;align=left;verticalAlign=top;spacingLeft=4;spacingRight=4;overflow=hidden;rotatable=0;points=[[0,0.5],[1,0.5]];portConstraint=eastwest;sketch=0;hachureGap=4;fontFamily=Helvetica;fontSize=17;" vertex="1" parent="ul43zJ5OsSFiVPlQpgqc-8">
                    <mxGeometry y="78" width="190" height="26" as="geometry"/>
                </mxCell>
                <mxCell id="ul43zJ5OsSFiVPlQpgqc-12" value="doctor" style="swimlane;fontStyle=0;childLayout=stackLayout;horizontal=1;startSize=26;fillColor=none;horizontalStack=0;resizeParent=1;resizeParentMax=0;resizeLast=0;collapsible=1;marginBottom=0;sketch=0;hachureGap=4;fontFamily=Helvetica;fontSize=17;" vertex="1" parent="ul43zJ5OsSFiVPlQpgqc-1">
                    <mxGeometry x="810" y="80" width="250" height="166" as="geometry"/>
                </mxCell>
                <mxCell id="ul43zJ5OsSFiVPlQpgqc-13" value="doctor_id: int" style="text;strokeColor=none;fillColor=none;align=left;verticalAlign=top;spacingLeft=4;spacingRight=4;overflow=hidden;rotatable=0;points=[[0,0.5],[1,0.5]];portConstraint=eastwest;sketch=0;hachureGap=4;fontFamily=Helvetica;fontSize=17;" vertex="1" parent="ul43zJ5OsSFiVPlQpgqc-12">
                    <mxGeometry y="26" width="250" height="26" as="geometry"/>
                </mxCell>
                <mxCell id="ul43zJ5OsSFiVPlQpgqc-14" value="name: varchar" style="text;strokeColor=none;fillColor=none;align=left;verticalAlign=top;spacingLeft=4;spacingRight=4;overflow=hidden;rotatable=0;points=[[0,0.5],[1,0.5]];portConstraint=eastwest;sketch=0;hachureGap=4;fontFamily=Helvetica;fontSize=17;" vertex="1" parent="ul43zJ5OsSFiVPlQpgqc-12">
                    <mxGeometry y="52" width="250" height="26" as="geometry"/>
                </mxCell>
                <mxCell id="ul43zJ5OsSFiVPlQpgqc-15" value="speciality: varchar" style="text;strokeColor=none;fillColor=none;align=left;verticalAlign=top;spacingLeft=4;spacingRight=4;overflow=hidden;rotatable=0;points=[[0,0.5],[1,0.5]];portConstraint=eastwest;sketch=0;hachureGap=4;fontFamily=Helvetica;fontSize=17;" vertex="1" parent="ul43zJ5OsSFiVPlQpgqc-12">
                    <mxGeometry y="78" width="250" height="26" as="geometry"/>
                </mxCell>
                <mxCell id="ul43zJ5OsSFiVPlQpgqc-16" value="fk_unit_id: int" style="text;strokeColor=none;fillColor=none;align=left;verticalAlign=top;spacingLeft=4;spacingRight=4;overflow=hidden;rotatable=0;points=[[0,0.5],[1,0.5]];portConstraint=eastwest;sketch=0;hachureGap=4;fontFamily=Helvetica;fontSize=17;" vertex="1" parent="ul43zJ5OsSFiVPlQpgqc-12">
                    <mxGeometry y="104" width="250" height="36" as="geometry"/>
                </mxCell>
                <mxCell id="ul43zJ5OsSFiVPlQpgqc-17" value="code: int" style="text;strokeColor=none;fillColor=none;align=left;verticalAlign=top;spacingLeft=4;spacingRight=4;overflow=hidden;rotatable=0;points=[[0,0.5],[1,0.5]];portConstraint=eastwest;sketch=0;hachureGap=4;fontFamily=Helvetica;fontSize=17;" vertex="1" parent="ul43zJ5OsSFiVPlQpgqc-12">
                    <mxGeometry y="140" width="250" height="26" as="geometry"/>
                </mxCell>
                <mxCell id="ul43zJ5OsSFiVPlQpgqc-18" style="edgeStyle=orthogonalEdgeStyle;rounded=0;sketch=0;hachureGap=4;orthogonalLoop=1;jettySize=auto;html=1;exitX=1;exitY=0.5;exitDx=0;exitDy=0;entryX=0;entryY=0.5;entryDx=0;entryDy=0;fontFamily=Helvetica;fontSize=17;endArrow=ERmany;endFill=0;startSize=14;endSize=14;sourcePerimeterSpacing=8;targetPerimeterSpacing=8;startArrow=ERone;startFill=0;" edge="1" parent="ul43zJ5OsSFiVPlQpgqc-1" source="ul43zJ5OsSFiVPlQpgqc-9" target="ul43zJ5OsSFiVPlQpgqc-16">
                    <mxGeometry relative="1" as="geometry"/>
                </mxCell>
                <mxCell id="ul43zJ5OsSFiVPlQpgqc-19" value="intervention" style="swimlane;fontStyle=0;childLayout=stackLayout;horizontal=1;startSize=26;fillColor=none;horizontalStack=0;resizeParent=1;resizeParentMax=0;resizeLast=0;collapsible=1;marginBottom=0;sketch=0;hachureGap=4;fontFamily=Helvetica;fontSize=17;" vertex="1" parent="ul43zJ5OsSFiVPlQpgqc-1">
                    <mxGeometry x="320" y="350" width="250" height="166" as="geometry"/>
                </mxCell>
                <mxCell id="ul43zJ5OsSFiVPlQpgqc-20" value="intervention_id: int" style="text;strokeColor=none;fillColor=none;align=left;verticalAlign=top;spacingLeft=4;spacingRight=4;overflow=hidden;rotatable=0;points=[[0,0.5],[1,0.5]];portConstraint=eastwest;sketch=0;hachureGap=4;fontFamily=Helvetica;fontSize=17;" vertex="1" parent="ul43zJ5OsSFiVPlQpgqc-19">
                    <mxGeometry y="26" width="250" height="26" as="geometry"/>
                </mxCell>
                <mxCell id="ul43zJ5OsSFiVPlQpgqc-21" value="date: int" style="text;strokeColor=none;fillColor=none;align=left;verticalAlign=top;spacingLeft=4;spacingRight=4;overflow=hidden;rotatable=0;points=[[0,0.5],[1,0.5]];portConstraint=eastwest;sketch=0;hachureGap=4;fontFamily=Helvetica;fontSize=17;" vertex="1" parent="ul43zJ5OsSFiVPlQpgqc-19">
                    <mxGeometry y="52" width="250" height="26" as="geometry"/>
                </mxCell>
                <mxCell id="ul43zJ5OsSFiVPlQpgqc-22" value="fk_treatment_id: int" style="text;strokeColor=none;fillColor=none;align=left;verticalAlign=top;spacingLeft=4;spacingRight=4;overflow=hidden;rotatable=0;points=[[0,0.5],[1,0.5]];portConstraint=eastwest;sketch=0;hachureGap=4;fontFamily=Helvetica;fontSize=17;" vertex="1" parent="ul43zJ5OsSFiVPlQpgqc-19">
                    <mxGeometry y="78" width="250" height="26" as="geometry"/>
                </mxCell>
                <mxCell id="ul43zJ5OsSFiVPlQpgqc-23" value="fk_doctor_id: int" style="text;strokeColor=none;fillColor=none;align=left;verticalAlign=top;spacingLeft=4;spacingRight=4;overflow=hidden;rotatable=0;points=[[0,0.5],[1,0.5]];portConstraint=eastwest;sketch=0;hachureGap=4;fontFamily=Helvetica;fontSize=17;" vertex="1" parent="ul43zJ5OsSFiVPlQpgqc-19">
                    <mxGeometry y="104" width="250" height="26" as="geometry"/>
                </mxCell>
                <mxCell id="ul43zJ5OsSFiVPlQpgqc-24" value="fk_patients_id: int" style="text;strokeColor=none;fillColor=none;align=left;verticalAlign=top;spacingLeft=4;spacingRight=4;overflow=hidden;rotatable=0;points=[[0,0.5],[1,0.5]];portConstraint=eastwest;sketch=0;hachureGap=4;fontFamily=Helvetica;fontSize=17;" vertex="1" parent="ul43zJ5OsSFiVPlQpgqc-19">
                    <mxGeometry y="130" width="250" height="36" as="geometry"/>
                </mxCell>
                <mxCell id="ul43zJ5OsSFiVPlQpgqc-25" style="edgeStyle=entityRelationEdgeStyle;rounded=0;sketch=0;hachureGap=4;orthogonalLoop=1;jettySize=auto;html=1;exitX=0;exitY=0.5;exitDx=0;exitDy=0;entryX=1;entryY=0.5;entryDx=0;entryDy=0;fontFamily=Helvetica;fontSize=17;startArrow=none;startFill=0;endArrow=none;endFill=0;startSize=14;endSize=14;sourcePerimeterSpacing=8;targetPerimeterSpacing=8;" edge="1" parent="ul43zJ5OsSFiVPlQpgqc-1" source="ul43zJ5OsSFiVPlQpgqc-24" target="ul43zJ5OsSFiVPlQpgqc-3">
                    <mxGeometry relative="1" as="geometry"/>
                </mxCell>
                <mxCell id="ul43zJ5OsSFiVPlQpgqc-26" style="edgeStyle=entityRelationEdgeStyle;rounded=0;sketch=0;hachureGap=4;orthogonalLoop=1;jettySize=auto;html=1;exitX=1;exitY=0.5;exitDx=0;exitDy=0;entryX=0;entryY=0.5;entryDx=0;entryDy=0;fontFamily=Helvetica;fontSize=17;startArrow=ERmany;startFill=0;endArrow=ERmany;endFill=0;startSize=14;endSize=14;sourcePerimeterSpacing=8;targetPerimeterSpacing=8;" edge="1" parent="ul43zJ5OsSFiVPlQpgqc-1" source="ul43zJ5OsSFiVPlQpgqc-6" target="ul43zJ5OsSFiVPlQpgqc-9">
                    <mxGeometry relative="1" as="geometry"/>
                </mxCell>
                <mxCell id="ul43zJ5OsSFiVPlQpgqc-27" style="edgeStyle=entityRelationEdgeStyle;rounded=0;sketch=0;hachureGap=4;orthogonalLoop=1;jettySize=auto;html=1;exitX=1;exitY=0.5;exitDx=0;exitDy=0;entryX=0;entryY=0.5;entryDx=0;entryDy=0;fontFamily=Helvetica;fontSize=17;startArrow=ERmany;startFill=0;endArrow=ERmany;endFill=0;startSize=14;endSize=14;sourcePerimeterSpacing=8;targetPerimeterSpacing=8;" edge="1" parent="ul43zJ5OsSFiVPlQpgqc-1" source="ul43zJ5OsSFiVPlQpgqc-23" target="ul43zJ5OsSFiVPlQpgqc-13">
                    <mxGeometry relative="1" as="geometry"/>
                </mxCell>
                <mxCell id="ul43zJ5OsSFiVPlQpgqc-28" value="treatment" style="swimlane;fontStyle=0;childLayout=stackLayout;horizontal=1;startSize=26;fillColor=none;horizontalStack=0;resizeParent=1;resizeParentMax=0;resizeLast=0;collapsible=1;marginBottom=0;sketch=0;hachureGap=4;fontFamily=Helvetica;fontSize=17;" vertex="1" parent="ul43zJ5OsSFiVPlQpgqc-1">
                    <mxGeometry x="750" y="400" width="250" height="166" as="geometry"/>
                </mxCell>
                <mxCell id="ul43zJ5OsSFiVPlQpgqc-29" value="treatment_id: int" style="text;strokeColor=none;fillColor=none;align=left;verticalAlign=top;spacingLeft=4;spacingRight=4;overflow=hidden;rotatable=0;points=[[0,0.5],[1,0.5]];portConstraint=eastwest;sketch=0;hachureGap=4;fontFamily=Helvetica;fontSize=17;" vertex="1" parent="ul43zJ5OsSFiVPlQpgqc-28">
                    <mxGeometry y="26" width="250" height="26" as="geometry"/>
                </mxCell>
                <mxCell id="ul43zJ5OsSFiVPlQpgqc-30" value="medicine: varchar" style="text;strokeColor=none;fillColor=none;align=left;verticalAlign=top;spacingLeft=4;spacingRight=4;overflow=hidden;rotatable=0;points=[[0,0.5],[1,0.5]];portConstraint=eastwest;sketch=0;hachureGap=4;fontFamily=Helvetica;fontSize=17;" vertex="1" parent="ul43zJ5OsSFiVPlQpgqc-28">
                    <mxGeometry y="52" width="250" height="26" as="geometry"/>
                </mxCell>
                <mxCell id="ul43zJ5OsSFiVPlQpgqc-31" value="duration: varchar" style="text;strokeColor=none;fillColor=none;align=left;verticalAlign=top;spacingLeft=4;spacingRight=4;overflow=hidden;rotatable=0;points=[[0,0.5],[1,0.5]];portConstraint=eastwest;sketch=0;hachureGap=4;fontFamily=Helvetica;fontSize=17;" vertex="1" parent="ul43zJ5OsSFiVPlQpgqc-28">
                    <mxGeometry y="78" width="250" height="26" as="geometry"/>
                </mxCell>
                <mxCell id="ul43zJ5OsSFiVPlQpgqc-32" value="fk_doctor_id: int" style="text;strokeColor=none;fillColor=none;align=left;verticalAlign=top;spacingLeft=4;spacingRight=4;overflow=hidden;rotatable=0;points=[[0,0.5],[1,0.5]];portConstraint=eastwest;sketch=0;hachureGap=4;fontFamily=Helvetica;fontSize=17;" vertex="1" parent="ul43zJ5OsSFiVPlQpgqc-28">
                    <mxGeometry y="104" width="250" height="26" as="geometry"/>
                </mxCell>
                <mxCell id="ul43zJ5OsSFiVPlQpgqc-33" value="fk_patients_id: int" style="text;strokeColor=none;fillColor=none;align=left;verticalAlign=top;spacingLeft=4;spacingRight=4;overflow=hidden;rotatable=0;points=[[0,0.5],[1,0.5]];portConstraint=eastwest;sketch=0;hachureGap=4;fontFamily=Helvetica;fontSize=17;" vertex="1" parent="ul43zJ5OsSFiVPlQpgqc-28">
                    <mxGeometry y="130" width="250" height="36" as="geometry"/>
                </mxCell>
                <mxCell id="ul43zJ5OsSFiVPlQpgqc-39" style="rounded=0;sketch=0;hachureGap=4;orthogonalLoop=1;jettySize=auto;html=1;exitX=0;exitY=0.5;exitDx=0;exitDy=0;fontFamily=Helvetica;fontSize=17;startArrow=none;startFill=0;endArrow=none;endFill=0;startSize=14;endSize=14;sourcePerimeterSpacing=8;targetPerimeterSpacing=8;entryX=1;entryY=0.5;entryDx=0;entryDy=0;" edge="1" parent="ul43zJ5OsSFiVPlQpgqc-1" source="ul43zJ5OsSFiVPlQpgqc-29" target="ul43zJ5OsSFiVPlQpgqc-22">
                    <mxGeometry relative="1" as="geometry">
                        <mxPoint x="733" y="390" as="targetPoint"/>
                    </mxGeometry>
                </mxCell>
            </root>
        </mxGraphModel>
    </diagram>
</mxfile>